<?xml version="1.0" encoding="utf-8"?><!-- Uploaded to: SVG Repo, www.svgrepo.com, Generator: SVG Repo Mixer Tools -->
<svg fill="#000000" width="800px" height="800px" viewBox="0 0 24 24" id="garage" data-name="Flat Line" xmlns="http://www.w3.org/2000/svg" class="icon flat-line"><path id="secondary" d="M19.45,6.72,12,3,4.55,6.72a1,1,0,0,0-.55.9V21H8V11h8V21h4V7.62A1,1,0,0,0,19.45,6.72Z" style="fill: rgb(44, 169, 188); stroke-width: 2;"></path><path id="primary" d="M16,21V11H8V21Zm0-6V11H8v4Zm3.45-8.28a1,1,0,0,1,.55.9V21H4V7.62a1,1,0,0,1,.55-.9L12,3Z" style="fill: none; stroke: rgb(0, 0, 0); stroke-linecap: round; stroke-linejoin: round; stroke-width: 2;"></path></svg>