<!DOCTYPE svg PUBLIC "-//W3C//DTD SVG 1.1//EN" "http://www.w3.org/Graphics/SVG/1.1/DTD/svg11.dtd">
<!-- Uploaded to: SVG Repo, www.svgrepo.com, Transformed by: SVG Repo Mixer Tools -->
<svg fill="#000000" width="800px" height="800px" viewBox="0 0 24 24" id="garage" data-name="Flat Line" xmlns="http://www.w3.org/2000/svg" class="icon flat-line">
<g id="SVGRepo_bgCarrier" stroke-width="0"/>
<g id="SVGRepo_tracerCarrier" stroke-linecap="round" stroke-linejoin="round"/>
<g id="SVGRepo_iconCarrier">
<path id="secondary" d="M19.45,6.72,12,3,4.55,6.72a1,1,0,0,0-.55.9V21H8V11h8V21h4V7.62A1,1,0,0,0,19.45,6.72Z" style="fill: #ba2c2c; stroke-width: 2;"/>
<path id="primary" d="M16,21V11H8V21Zm0-6V11H8v4Zm3.45-8.28a1,1,0,0,1,.55.9V21H4V7.62a1,1,0,0,1,.55-.9L12,3Z" style="fill: none; stroke: #000000; stroke-linecap: round; stroke-linejoin: round; stroke-width: 2;"/>
</g>
</svg>