<!DOCTYPE svg PUBLIC "-//W3C//DTD SVG 1.1//EN" "http://www.w3.org/Graphics/SVG/1.1/DTD/svg11.dtd">
<!-- Uploaded to: SVG Repo, www.svgrepo.com, Transformed by: SVG Repo Mixer Tools -->
<svg fill="#000000" width="800px" height="800px" viewBox="0 0 24 24" id="mail-2" data-name="Flat Line" xmlns="http://www.w3.org/2000/svg" class="icon flat-line">
<g id="SVGRepo_bgCarrier" stroke-width="0"/>
<g id="SVGRepo_tracerCarrier" stroke-linecap="round" stroke-linejoin="round"/>
<g id="SVGRepo_iconCarrier">
<path id="secondary" d="M20.61,5.23l-7.94,7.16a1,1,0,0,1-1.34,0L3.39,5.23A1,1,0,0,0,3,6V18a1,1,0,0,0,1,1H20a1,1,0,0,0,1-1V6A1,1,0,0,0,20.61,5.23Z" style="fill: #2ca9bc; stroke-width: 2;"/>
<path id="primary" d="M20,19H4a1,1,0,0,1-1-1V6A1,1,0,0,1,4,5H20a1,1,0,0,1,1,1V18A1,1,0,0,1,20,19ZM20,5H4a1.05,1.05,0,0,0-.6.2l7.93,7.19a1,1,0,0,0,1.34,0L20.6,5.2A1.05,1.05,0,0,0,20,5Zm-5.2,5.8L17,13M9.2,10.8,7,13" style="fill: none; stroke: #000000; stroke-linecap: round; stroke-linejoin: round; stroke-width: 2;"/>
</g>
</svg>