<?xml version="1.0" encoding="iso-8859-1"?>
<!-- Uploaded to: SVG Repo, www.svgrepo.com, Generator: SVG Repo Mixer Tools -->
<svg version="1.1" id="Layer_1" xmlns="http://www.w3.org/2000/svg" xmlns:xlink="http://www.w3.org/1999/xlink" 
	 viewBox="0 0 512 512" xml:space="preserve">
<path style="fill:#38C6B4;" d="M256.008,384.544c-10.608-21.92-33.024-70.384-45.12-112.208l-2.016-7.008l-6.608-3.072
	c-45.344-21.072-74.64-67.056-74.64-117.136c0-71.2,57.584-129.12,128.368-129.12S384.36,73.92,384.36,145.12
	c0,50.08-29.296,96.064-74.656,117.136l-6.592,3.072l-2.032,6.992C289.192,313.424,267.72,360.32,256.008,384.544z"/>
<g>
	<path style="fill:#222077;" d="M255.992,32C317.96,32,368.36,82.752,368.36,145.12c0,43.872-25.68,84.16-65.408,102.64l-13.2,6.144
		l-4.048,13.984c-7.568,26.16-19.408,55.248-29.728,78.576c-10.24-23.088-22.096-52.208-29.728-78.576l-4.048-13.984L209,247.76
		c-39.728-18.48-65.392-58.752-65.392-102.624C143.624,82.752,194.024,32,255.992,32 M255.992,0
		c-79.728,0-144.368,64.976-144.368,145.12c0,58.416,34.416,108.64,83.904,131.648c15.648,54.144,47.344,117.584,52.016,126.736
		l8.448,16.768l8.512-16.768c4.624-9.2,36.288-72.624,51.952-126.72c49.504-23.008,83.92-73.232,83.92-131.648
		C400.36,64.976,335.72,0,255.992,0L255.992,0z"/>
	<ellipse style="fill:#222077;" cx="255.992" cy="145.12" rx="47.968" ry="48.16"/>
	<rect x="163.192" y="480" style="fill:#222077;" width="185.6" height="32"/>
</g>
</svg>