<!DOCTYPE svg PUBLIC "-//W3C//DTD SVG 1.1//EN" "http://www.w3.org/Graphics/SVG/1.1/DTD/svg11.dtd">
<!-- Uploaded to: SVG Repo, www.svgrepo.com, Transformed by: SVG Repo Mixer Tools -->
<svg width="800px" height="800px" viewBox="-1 0 20 20" xmlns="http://www.w3.org/2000/svg" fill="#000000">
<g id="SVGRepo_bgCarrier" stroke-width="0"/>
<g id="SVGRepo_tracerCarrier" stroke-linecap="round" stroke-linejoin="round"/>
<g id="SVGRepo_iconCarrier"> <g id="user" transform="translate(-3 -2)"> <path id="secondary" fill="#ba2c2c" d="M9,15h6a5,5,0,0,1,5,5h0a1,1,0,0,1-1,1H5a1,1,0,0,1-1-1H4a5,5,0,0,1,5-5Z"/> <path id="primary" d="M20,20h0a1,1,0,0,1-1,1H5a1,1,0,0,1-1-1H4a5,5,0,0,1,5-5h6A5,5,0,0,1,20,20ZM12,3a4,4,0,1,0,4,4A4,4,0,0,0,12,3Z" fill="none" stroke="#000000" stroke-linecap="round" stroke-linejoin="round" stroke-width="2"/> </g> </g>
</svg>